<svg width="132" height="57" viewBox="0 0 132 57" fill="none" xmlns="http://www.w3.org/2000/svg">
<rect width="132" height="38" rx="4" fill="black" fill-opacity="0.9"/>
<path d="M28.1724 26.032H19.7884L18.4444 30H12.7164L20.8444 7.536H27.1804L35.3084 30H29.5164L28.1724 26.032ZM26.7644 21.808L23.9804 13.584L21.2284 21.808H26.7644ZM57.4621 7.536V11.92H51.5101V30H46.0381V11.92H40.0861V7.536H57.4621ZM74.3524 30.224C72.2404 30.224 70.299 29.7333 68.5284 28.752C66.779 27.7707 65.3817 26.4053 64.3364 24.656C63.3124 22.8853 62.8004 20.9013 62.8004 18.704C62.8004 16.5067 63.3124 14.5333 64.3364 12.784C65.3817 11.0347 66.779 9.66933 68.5284 8.688C70.299 7.70667 72.2404 7.216 74.3524 7.216C76.4644 7.216 78.395 7.70667 80.1444 8.688C81.915 9.66933 83.3017 11.0347 84.3044 12.784C85.3284 14.5333 85.8404 16.5067 85.8404 18.704C85.8404 20.9013 85.3284 22.8853 84.3044 24.656C83.2804 26.4053 81.8937 27.7707 80.1444 28.752C78.395 29.7333 76.4644 30.224 74.3524 30.224ZM74.3524 25.232C76.1444 25.232 77.5737 24.6347 78.6404 23.44C79.7284 22.2453 80.2724 20.6667 80.2724 18.704C80.2724 16.72 79.7284 15.1413 78.6404 13.968C77.5737 12.7733 76.1444 12.176 74.3524 12.176C72.539 12.176 71.0884 12.7627 70.0004 13.936C68.9337 15.1093 68.4004 16.6987 68.4004 18.704C68.4004 20.688 68.9337 22.2773 70.0004 23.472C71.0884 24.6453 72.539 25.232 74.3524 25.232ZM117.845 7.536V30H112.373V16.528L107.349 30H102.933L97.8766 16.496V30H92.4046V7.536H98.8686L105.173 23.088L111.413 7.536H117.845Z" fill="#FFFCF9"/>
<path d="M6.35769 48.4C6.76436 48.4867 7.09103 48.69 7.33769 49.01C7.58436 49.3233 7.70769 49.6833 7.70769 50.09C7.70769 50.6767 7.50103 51.1433 7.08769 51.49C6.68103 51.83 6.11103 52 5.37769 52H2.10769V44.98H5.26769C5.98103 44.98 6.53769 45.1433 6.93769 45.47C7.34436 45.7967 7.54769 46.24 7.54769 46.8C7.54769 47.2133 7.43769 47.5567 7.21769 47.83C7.00436 48.1033 6.71769 48.2933 6.35769 48.4ZM3.81769 47.82H4.93769C5.21769 47.82 5.43103 47.76 5.57769 47.64C5.73103 47.5133 5.80769 47.33 5.80769 47.09C5.80769 46.85 5.73103 46.6667 5.57769 46.54C5.43103 46.4133 5.21769 46.35 4.93769 46.35H3.81769V47.82ZM5.07769 50.62C5.36436 50.62 5.58436 50.5567 5.73769 50.43C5.89769 50.2967 5.97769 50.1067 5.97769 49.86C5.97769 49.6133 5.89436 49.42 5.72769 49.28C5.56769 49.14 5.34436 49.07 5.05769 49.07H3.81769V50.62H5.07769ZM16.1195 44.98L13.6895 49.68V52H11.9795V49.68L9.54949 44.98H11.4895L12.8495 47.92L14.1995 44.98H16.1195ZM23.4176 53.29H21.7076V43.85H23.4176V53.29ZM33.1369 52L31.6769 49.35H31.2669V52H29.5569V44.98H32.4269C32.9802 44.98 33.4502 45.0767 33.8369 45.27C34.2302 45.4633 34.5236 45.73 34.7169 46.07C34.9102 46.4033 35.0069 46.7767 35.0069 47.19C35.0069 47.6567 34.8736 48.0733 34.6069 48.44C34.3469 48.8067 33.9602 49.0667 33.4469 49.22L35.0669 52H33.1369ZM31.2669 48.14H32.3269C32.6402 48.14 32.8736 48.0633 33.0269 47.91C33.1869 47.7567 33.2669 47.54 33.2669 47.26C33.2669 46.9933 33.1869 46.7833 33.0269 46.63C32.8736 46.4767 32.6402 46.4 32.3269 46.4H31.2669V48.14ZM41.8504 50.76H39.2304L38.8104 52H37.0204L39.5604 44.98H41.5404L44.0804 52H42.2704L41.8504 50.76ZM41.4104 49.44L40.5404 46.87L39.6804 49.44H41.4104ZM50.9134 47.2C50.7867 46.9667 50.6034 46.79 50.3634 46.67C50.1301 46.5433 49.8534 46.48 49.5334 46.48C48.9801 46.48 48.5367 46.6633 48.2034 47.03C47.8701 47.39 47.7034 47.8733 47.7034 48.48C47.7034 49.1267 47.8767 49.6333 48.2234 50C48.5767 50.36 49.0601 50.54 49.6734 50.54C50.0934 50.54 50.4467 50.4333 50.7334 50.22C51.0267 50.0067 51.2401 49.7 51.3734 49.3H49.2034V48.04H52.9234V49.63C52.7967 50.0567 52.5801 50.4533 52.2734 50.82C51.9734 51.1867 51.5901 51.4833 51.1234 51.71C50.6567 51.9367 50.1301 52.05 49.5434 52.05C48.8501 52.05 48.2301 51.9 47.6834 51.6C47.1434 51.2933 46.7201 50.87 46.4134 50.33C46.1134 49.79 45.9634 49.1733 45.9634 48.48C45.9634 47.7867 46.1134 47.17 46.4134 46.63C46.7201 46.0833 47.1434 45.66 47.6834 45.36C48.2234 45.0533 48.8401 44.9 49.5334 44.9C50.3734 44.9 51.0801 45.1033 51.6534 45.51C52.2334 45.9167 52.6167 46.48 52.8034 47.2H50.9134ZM61.3506 44.98V52H59.6406V49.11H56.9806V52H55.2706V44.98H56.9806V47.73H59.6406V44.98H61.3506ZM68.355 50.76H65.735L65.315 52H63.525L66.065 44.98H68.045L70.585 52H68.775L68.355 50.76ZM67.915 49.44L67.045 46.87L66.185 49.44H67.915ZM79.3481 44.98L76.8581 52H74.7181L72.2281 44.98H74.0481L75.7881 50.28L77.5381 44.98H79.3481ZM89.3519 50.76H86.7319L86.3119 52H84.5219L87.0619 44.98H89.0419L91.5819 52H89.7719L89.3519 50.76ZM88.9119 49.44L88.0419 46.87L87.1819 49.44H88.9119ZM93.465 48.48C93.465 47.7867 93.615 47.17 93.915 46.63C94.215 46.0833 94.6316 45.66 95.165 45.36C95.705 45.0533 96.315 44.9 96.995 44.9C97.8283 44.9 98.5416 45.12 99.135 45.56C99.7283 46 100.125 46.6 100.325 47.36H98.445C98.305 47.0667 98.105 46.8433 97.845 46.69C97.5916 46.5367 97.3016 46.46 96.975 46.46C96.4483 46.46 96.0216 46.6433 95.695 47.01C95.3683 47.3767 95.205 47.8667 95.205 48.48C95.205 49.0933 95.3683 49.5833 95.695 49.95C96.0216 50.3167 96.4483 50.5 96.975 50.5C97.3016 50.5 97.5916 50.4233 97.845 50.27C98.105 50.1167 98.305 49.8933 98.445 49.6H100.325C100.125 50.36 99.7283 50.96 99.135 51.4C98.5416 51.8333 97.8283 52.05 96.995 52.05C96.315 52.05 95.705 51.9 95.165 51.6C94.6316 51.2933 94.215 50.87 93.915 50.33C93.615 49.79 93.465 49.1733 93.465 48.48ZM108.852 44.98V52H107.142V49.11H104.482V52H102.772V44.98H104.482V47.73H107.142V44.98H108.852ZM115.857 50.76H113.237L112.817 52H111.027L113.567 44.98H115.547L118.087 52H116.277L115.857 50.76ZM115.417 49.44L114.547 46.87L113.687 49.44H115.417ZM123.84 52L122.38 49.35H121.97V52H120.26V44.98H123.13C123.683 44.98 124.153 45.0767 124.54 45.27C124.933 45.4633 125.226 45.73 125.42 46.07C125.613 46.4033 125.71 46.7767 125.71 47.19C125.71 47.6567 125.576 48.0733 125.31 48.44C125.05 48.8067 124.663 49.0667 124.15 49.22L125.77 52H123.84ZM121.97 48.14H123.03C123.343 48.14 123.576 48.0633 123.73 47.91C123.89 47.7567 123.97 47.54 123.97 47.26C123.97 46.9933 123.89 46.7833 123.73 46.63C123.576 46.4767 123.343 46.4 123.03 46.4H121.97V48.14ZM129.893 44.98V52H128.183V44.98H129.893Z" fill="black" fill-opacity="0.9"/>
</svg>
